<svg xmlns="http://www.w3.org/2000/svg" viewBox="0 0 240.52 137.17"><defs><style>.cls-1{font-size:21.53px;fill:#fff;font-family:Montserrat-ExtraBold, Montserrat;font-weight:800;}</style></defs><title>logo</title><g id="Layer_2" data-name="Layer 2"><g id="Layer_1-2" data-name="Layer 1"><path d="M221.51,69.94s37.27,37,5.78,63c0,0-19.74,12.91-40.92-6.56,0,0-15.06-13.21-24.68-16.51,0,0-21.92-12.78-78.65-3.88a109.92,109.92,0,0,0-29.5,15.11S27.85,143.66,5,121.7c0,0-17.74-20,13.47-57,0,0-37.32-35.16-4.1-61.76,0,0,20.21-9.25,37,5.23,0,0,18.32,20,26.3,20.22,0,0,36.81,10.72,83.16,5.82,0,0,12.68-4.55,27.36-20.65,0,0,21.61-19,42.84-1.33C231,12.2,257.78,35.48,221.51,69.94Z"/><text class="cls-1" transform="translate(23.8 76.7)">FIDO N’ FRIENDS</text></g></g></svg>